<svg xmlns="http://www.w3.org/2000/svg" xmlns:xlink="http://www.w3.org/1999/xlink" width="500"
  zoomAndPan="magnify" viewBox="0 0 375 374.999991" height="500" preserveAspectRatio="xMidYMid meet"
  version="1.0">
  <style>
    :root {
    --current-primary: #000000;
    --current-accent: #545454;
    }
    @media (prefers-color-scheme: dark) {
    :root {
    --current-primary: #ffffff;
    --current-accent: #a6a6a6;
    }
    }
  </style>
  <defs>
    <g />
    <clipPath id="339e23535c">
      <path d="M 80.625 37.5 L 294.375 37.5 L 294.375 337.5 L 80.625 337.5 Z M 80.625 37.5 "
        clip-rule="nonzero" />
    </clipPath>
  </defs>
  <g clip-path="url(#339e23535c)">
    <path style="fill: var(--current-primary, #000000)"
      d="M 276.035156 337.5 L 98.964844 337.5 C 98.363281 337.5 97.765625 337.46875 97.171875 337.410156 C 96.574219 337.351562 95.984375 337.261719 95.394531 337.144531 C 94.808594 337.027344 94.230469 336.882812 93.65625 336.707031 C 93.082031 336.535156 92.519531 336.332031 91.964844 336.101562 C 91.414062 335.871094 90.871094 335.617188 90.34375 335.332031 C 89.816406 335.050781 89.304688 334.742188 88.804688 334.410156 C 88.308594 334.078125 87.828125 333.722656 87.363281 333.339844 C 86.902344 332.960938 86.457031 332.558594 86.035156 332.136719 C 85.609375 331.710938 85.210938 331.269531 84.828125 330.804688 C 84.449219 330.34375 84.09375 329.863281 83.761719 329.367188 C 83.425781 328.867188 83.121094 328.355469 82.835938 327.828125 C 82.554688 327.296875 82.296875 326.757812 82.070312 326.203125 C 81.839844 325.652344 81.636719 325.089844 81.464844 324.515625 C 81.289062 323.941406 81.144531 323.363281 81.027344 322.773438 C 80.910156 322.1875 80.820312 321.59375 80.761719 321 C 80.703125 320.402344 80.671875 319.804688 80.671875 319.207031 L 80.671875 180.914062 C 80.671875 180.429688 80.761719 179.960938 80.949219 179.515625 C 81.136719 179.066406 81.398438 178.671875 81.742188 178.328125 C 82.085938 177.984375 82.480469 177.71875 82.929688 177.535156 C 83.378906 177.347656 83.84375 177.257812 84.328125 177.257812 C 84.8125 177.257812 85.28125 177.347656 85.730469 177.535156 C 86.175781 177.71875 86.574219 177.984375 86.917969 178.328125 C 87.257812 178.671875 87.523438 179.066406 87.710938 179.515625 C 87.894531 179.960938 87.988281 180.429688 87.988281 180.914062 L 87.988281 319.207031 C 87.988281 319.925781 88.058594 320.640625 88.199219 321.347656 C 88.34375 322.054688 88.550781 322.738281 88.828125 323.40625 C 89.101562 324.070312 89.441406 324.703125 89.839844 325.300781 C 90.242188 325.902344 90.695312 326.457031 91.207031 326.964844 C 91.714844 327.472656 92.269531 327.929688 92.867188 328.328125 C 93.46875 328.730469 94.101562 329.066406 94.765625 329.34375 C 95.429688 329.621094 96.117188 329.828125 96.824219 329.96875 C 97.53125 330.109375 98.242188 330.183594 98.964844 330.183594 L 276.035156 330.183594 C 276.757812 330.183594 277.46875 330.109375 278.175781 329.96875 C 278.882812 329.828125 279.570312 329.621094 280.234375 329.34375 C 280.898438 329.066406 281.53125 328.730469 282.132812 328.328125 C 282.730469 327.929688 283.285156 327.472656 283.792969 326.964844 C 284.304688 326.457031 284.757812 325.902344 285.160156 325.300781 C 285.558594 324.703125 285.898438 324.070312 286.171875 323.40625 C 286.449219 322.738281 286.65625 322.054688 286.800781 321.347656 C 286.941406 320.640625 287.011719 319.925781 287.011719 319.207031 L 287.011719 55.792969 C 287.011719 55.070312 286.941406 54.359375 286.800781 53.652344 C 286.65625 52.945312 286.449219 52.261719 286.171875 51.59375 C 285.898438 50.929688 285.558594 50.296875 285.160156 49.699219 C 284.757812 49.097656 284.304688 48.542969 283.792969 48.035156 C 283.285156 47.527344 282.730469 47.070312 282.132812 46.671875 C 281.53125 46.269531 280.898438 45.933594 280.234375 45.65625 C 279.570312 45.378906 278.882812 45.171875 278.175781 45.03125 C 277.46875 44.890625 276.757812 44.816406 276.035156 44.816406 L 98.964844 44.816406 C 98.242188 44.816406 97.53125 44.890625 96.824219 45.03125 C 96.117188 45.171875 95.429688 45.378906 94.765625 45.65625 C 94.101562 45.933594 93.46875 46.269531 92.867188 46.671875 C 92.269531 47.070312 91.714844 47.527344 91.207031 48.035156 C 90.695312 48.542969 90.242188 49.097656 89.839844 49.699219 C 89.441406 50.296875 89.101562 50.929688 88.828125 51.59375 C 88.550781 52.261719 88.34375 52.945312 88.199219 53.652344 C 88.058594 54.359375 87.988281 55.070312 87.988281 55.792969 L 87.988281 158.964844 C 87.988281 159.449219 87.894531 159.914062 87.710938 160.363281 C 87.523438 160.8125 87.257812 161.207031 86.917969 161.550781 C 86.574219 161.894531 86.175781 162.15625 85.730469 162.34375 C 85.28125 162.527344 84.8125 162.621094 84.328125 162.621094 C 83.84375 162.621094 83.378906 162.527344 82.929688 162.34375 C 82.480469 162.15625 82.085938 161.894531 81.742188 161.550781 C 81.398438 161.207031 81.136719 160.8125 80.949219 160.363281 C 80.761719 159.914062 80.671875 159.449219 80.671875 158.964844 L 80.671875 55.792969 C 80.671875 55.195312 80.703125 54.597656 80.761719 54 C 80.820312 53.40625 80.910156 52.8125 81.027344 52.226562 C 81.144531 51.636719 81.289062 51.058594 81.464844 50.484375 C 81.636719 49.910156 81.839844 49.347656 82.070312 48.796875 C 82.296875 48.242188 82.554688 47.703125 82.835938 47.171875 C 83.121094 46.644531 83.425781 46.132812 83.761719 45.632812 C 84.09375 45.136719 84.449219 44.65625 84.828125 44.195312 C 85.210938 43.730469 85.609375 43.289062 86.035156 42.863281 C 86.457031 42.441406 86.902344 42.039062 87.363281 41.660156 C 87.828125 41.277344 88.308594 40.921875 88.804688 40.589844 C 89.304688 40.257812 89.816406 39.949219 90.34375 39.664062 C 90.871094 39.382812 91.414062 39.128906 91.964844 38.898438 C 92.519531 38.667969 93.082031 38.464844 93.65625 38.292969 C 94.230469 38.117188 94.808594 37.972656 95.394531 37.855469 C 95.984375 37.738281 96.574219 37.648438 97.171875 37.589844 C 97.765625 37.53125 98.363281 37.5 98.964844 37.5 L 276.035156 37.5 C 276.636719 37.5 277.234375 37.53125 277.828125 37.589844 C 278.425781 37.648438 279.015625 37.738281 279.605469 37.855469 C 280.191406 37.972656 280.769531 38.117188 281.34375 38.292969 C 281.917969 38.464844 282.480469 38.667969 283.035156 38.898438 C 283.585938 39.128906 284.128906 39.382812 284.65625 39.664062 C 285.183594 39.949219 285.695312 40.257812 286.195312 40.589844 C 286.691406 40.921875 287.171875 41.277344 287.636719 41.660156 C 288.097656 42.039062 288.542969 42.441406 288.964844 42.863281 C 289.390625 43.289062 289.789062 43.730469 290.171875 44.195312 C 290.550781 44.65625 290.90625 45.136719 291.238281 45.632812 C 291.574219 46.132812 291.878906 46.644531 292.164062 47.171875 C 292.445312 47.703125 292.703125 48.242188 292.929688 48.796875 C 293.160156 49.347656 293.363281 49.910156 293.535156 50.484375 C 293.710938 51.058594 293.855469 51.636719 293.972656 52.226562 C 294.089844 52.8125 294.179688 53.40625 294.238281 54 C 294.296875 54.597656 294.328125 55.195312 294.328125 55.792969 L 294.328125 319.207031 C 294.328125 319.804688 294.296875 320.402344 294.238281 321 C 294.179688 321.59375 294.089844 322.1875 293.972656 322.773438 C 293.855469 323.363281 293.710938 323.941406 293.535156 324.515625 C 293.363281 325.089844 293.160156 325.652344 292.929688 326.203125 C 292.703125 326.757812 292.445312 327.296875 292.164062 327.828125 C 291.878906 328.355469 291.574219 328.867188 291.238281 329.367188 C 290.90625 329.863281 290.550781 330.34375 290.171875 330.804688 C 289.789062 331.269531 289.390625 331.710938 288.964844 332.136719 C 288.542969 332.558594 288.097656 332.960938 287.636719 333.339844 C 287.171875 333.722656 286.691406 334.078125 286.195312 334.410156 C 285.695312 334.742188 285.183594 335.050781 284.65625 335.332031 C 284.128906 335.617188 283.585938 335.871094 283.035156 336.101562 C 282.480469 336.332031 281.917969 336.535156 281.34375 336.707031 C 280.769531 336.882812 280.191406 337.027344 279.605469 337.144531 C 279.015625 337.261719 278.425781 337.351562 277.828125 337.410156 C 277.234375 337.46875 276.636719 337.5 276.035156 337.5 Z M 187.5 310.425781 C 186.539062 310.425781 185.585938 310.332031 184.644531 310.144531 C 183.703125 309.957031 182.789062 309.679688 181.898438 309.3125 C 181.011719 308.945312 180.167969 308.496094 179.371094 307.960938 C 178.570312 307.425781 177.832031 306.820312 177.152344 306.140625 C 176.472656 305.460938 175.867188 304.722656 175.332031 303.921875 C 174.796875 303.125 174.347656 302.28125 173.980469 301.394531 C 173.613281 300.503906 173.335938 299.589844 173.148438 298.648438 C 172.960938 297.707031 172.867188 296.753906 172.867188 295.792969 C 172.867188 294.832031 172.960938 293.878906 173.148438 292.9375 C 173.335938 291.996094 173.613281 291.082031 173.980469 290.191406 C 174.347656 289.304688 174.796875 288.460938 175.332031 287.664062 C 175.867188 286.863281 176.472656 286.125 177.152344 285.445312 C 177.832031 284.765625 178.570312 284.160156 179.371094 283.625 C 180.167969 283.089844 181.011719 282.640625 181.898438 282.273438 C 182.789062 281.90625 183.703125 281.628906 184.644531 281.441406 C 185.585938 281.253906 186.539062 281.160156 187.5 281.160156 C 188.460938 281.160156 189.414062 281.253906 190.355469 281.441406 C 191.296875 281.628906 192.210938 281.90625 193.101562 282.273438 C 193.988281 282.640625 194.832031 283.089844 195.628906 283.625 C 196.429688 284.160156 197.167969 284.765625 197.847656 285.445312 C 198.527344 286.125 199.132812 286.863281 199.667969 287.664062 C 200.203125 288.460938 200.652344 289.304688 201.019531 290.191406 C 201.386719 291.082031 201.664062 291.996094 201.851562 292.9375 C 202.039062 293.878906 202.132812 294.832031 202.132812 295.792969 C 202.132812 296.753906 202.039062 297.703125 201.851562 298.648438 C 201.660156 299.589844 201.382812 300.503906 201.015625 301.390625 C 200.648438 302.277344 200.195312 303.121094 199.664062 303.917969 C 199.128906 304.71875 198.523438 305.457031 197.84375 306.136719 C 197.164062 306.816406 196.425781 307.421875 195.625 307.957031 C 194.828125 308.488281 193.984375 308.941406 193.097656 309.308594 C 192.210938 309.675781 191.296875 309.953125 190.355469 310.144531 C 189.410156 310.332031 188.460938 310.425781 187.5 310.425781 Z M 187.5 288.476562 C 187.019531 288.476562 186.542969 288.523438 186.074219 288.617188 C 185.601562 288.710938 185.144531 288.847656 184.699219 289.03125 C 184.257812 289.214844 183.835938 289.441406 183.433594 289.707031 C 183.035156 289.976562 182.664062 290.277344 182.324219 290.617188 C 181.984375 290.957031 181.683594 291.328125 181.417969 291.726562 C 181.148438 292.125 180.921875 292.546875 180.738281 292.992188 C 180.554688 293.4375 180.417969 293.894531 180.324219 294.363281 C 180.230469 294.835938 180.183594 295.3125 180.183594 295.792969 C 180.183594 296.273438 180.230469 296.75 180.324219 297.21875 C 180.417969 297.691406 180.554688 298.148438 180.738281 298.59375 C 180.921875 299.035156 181.148438 299.457031 181.417969 299.859375 C 181.683594 300.257812 181.984375 300.625 182.324219 300.964844 C 182.664062 301.304688 183.035156 301.609375 183.433594 301.875 C 183.835938 302.144531 184.257812 302.367188 184.699219 302.550781 C 185.144531 302.738281 185.601562 302.875 186.074219 302.96875 C 186.542969 303.0625 187.019531 303.109375 187.5 303.109375 C 187.980469 303.109375 188.457031 303.0625 188.925781 302.96875 C 189.398438 302.875 189.855469 302.738281 190.300781 302.550781 C 190.742188 302.367188 191.164062 302.144531 191.566406 301.875 C 191.964844 301.609375 192.335938 301.304688 192.675781 300.964844 C 193.015625 300.625 193.316406 300.257812 193.582031 299.859375 C 193.851562 299.457031 194.078125 299.035156 194.261719 298.59375 C 194.445312 298.148438 194.582031 297.691406 194.675781 297.21875 C 194.769531 296.75 194.816406 296.273438 194.816406 295.792969 C 194.816406 295.3125 194.769531 294.835938 194.675781 294.367188 C 194.582031 293.894531 194.441406 293.4375 194.257812 292.992188 C 194.074219 292.550781 193.847656 292.128906 193.582031 291.730469 C 193.316406 291.332031 193.011719 290.960938 192.671875 290.621094 C 192.332031 290.28125 191.960938 289.976562 191.5625 289.710938 C 191.164062 289.445312 190.742188 289.21875 190.300781 289.035156 C 189.855469 288.851562 189.398438 288.710938 188.925781 288.617188 C 188.457031 288.523438 187.980469 288.476562 187.5 288.476562 Z M 222.621094 264.328125 L 152.378906 264.328125 C 151.65625 264.328125 150.945312 264.257812 150.238281 264.117188 C 149.53125 263.976562 148.84375 263.765625 148.179688 263.492188 C 147.515625 263.214844 146.882812 262.875 146.285156 262.476562 C 145.683594 262.074219 145.128906 261.621094 144.621094 261.109375 C 144.109375 260.601562 143.65625 260.046875 143.257812 259.449219 C 142.855469 258.847656 142.515625 258.21875 142.242188 257.550781 C 141.964844 256.886719 141.757812 256.199219 141.617188 255.492188 C 141.472656 254.789062 141.402344 254.074219 141.402344 253.355469 L 141.402344 121.644531 C 141.402344 120.925781 141.472656 120.210938 141.617188 119.507812 C 141.757812 118.800781 141.964844 118.113281 142.242188 117.449219 C 142.515625 116.78125 142.855469 116.152344 143.257812 115.550781 C 143.65625 114.953125 144.109375 114.398438 144.621094 113.890625 C 145.128906 113.378906 145.683594 112.925781 146.285156 112.523438 C 146.882812 112.125 147.515625 111.785156 148.179688 111.507812 C 148.84375 111.234375 149.53125 111.023438 150.238281 110.882812 C 150.945312 110.742188 151.65625 110.671875 152.378906 110.671875 L 222.621094 110.671875 C 223.34375 110.671875 224.054688 110.742188 224.761719 110.882812 C 225.46875 111.023438 226.15625 111.234375 226.820312 111.507812 C 227.484375 111.785156 228.117188 112.125 228.714844 112.523438 C 229.316406 112.925781 229.871094 113.378906 230.378906 113.890625 C 230.886719 114.398438 231.34375 114.953125 231.742188 115.550781 C 232.144531 116.152344 232.484375 116.78125 232.757812 117.449219 C 233.035156 118.113281 233.242188 118.800781 233.382812 119.507812 C 233.527344 120.210938 233.597656 120.925781 233.597656 121.644531 L 233.597656 253.355469 C 233.597656 254.074219 233.527344 254.789062 233.382812 255.492188 C 233.242188 256.199219 233.035156 256.886719 232.757812 257.550781 C 232.484375 258.21875 232.144531 258.847656 231.742188 259.449219 C 231.34375 260.046875 230.886719 260.601562 230.378906 261.109375 C 229.871094 261.621094 229.316406 262.074219 228.714844 262.476562 C 228.117188 262.875 227.484375 263.214844 226.820312 263.492188 C 226.15625 263.765625 225.46875 263.976562 224.761719 264.117188 C 224.054688 264.257812 223.34375 264.328125 222.621094 264.328125 Z M 152.378906 117.988281 C 151.894531 117.988281 151.425781 118.082031 150.980469 118.265625 C 150.53125 118.453125 150.136719 118.71875 149.792969 119.0625 C 149.449219 119.402344 149.183594 119.800781 149 120.246094 C 148.8125 120.695312 148.71875 121.160156 148.71875 121.644531 L 148.71875 253.355469 C 148.71875 253.839844 148.8125 254.304688 149 254.753906 C 149.183594 255.199219 149.449219 255.597656 149.792969 255.9375 C 150.136719 256.28125 150.53125 256.546875 150.980469 256.734375 C 151.425781 256.917969 151.894531 257.011719 152.378906 257.011719 L 222.621094 257.011719 C 223.105469 257.011719 223.574219 256.917969 224.019531 256.734375 C 224.46875 256.546875 224.863281 256.28125 225.207031 255.9375 C 225.550781 255.597656 225.816406 255.199219 226 254.753906 C 226.1875 254.304688 226.28125 253.839844 226.28125 253.355469 L 226.28125 121.644531 C 226.28125 121.160156 226.1875 120.695312 226 120.246094 C 225.816406 119.800781 225.550781 119.402344 225.207031 119.0625 C 224.863281 118.71875 224.46875 118.453125 224.019531 118.265625 C 223.574219 118.082031 223.105469 117.988281 222.621094 117.988281 Z M 187.5 93.839844 C 186.539062 93.839844 185.585938 93.746094 184.644531 93.558594 C 183.703125 93.371094 182.789062 93.09375 181.898438 92.726562 C 181.011719 92.359375 180.167969 91.910156 179.371094 91.375 C 178.570312 90.839844 177.832031 90.234375 177.152344 89.554688 C 176.472656 88.875 175.867188 88.136719 175.332031 87.335938 C 174.796875 86.539062 174.347656 85.695312 173.980469 84.808594 C 173.613281 83.917969 173.335938 83.003906 173.148438 82.0625 C 172.960938 81.121094 172.867188 80.167969 172.867188 79.207031 C 172.867188 78.246094 172.960938 77.292969 173.148438 76.351562 C 173.335938 75.410156 173.613281 74.496094 173.980469 73.605469 C 174.347656 72.71875 174.796875 71.875 175.332031 71.078125 C 175.867188 70.277344 176.472656 69.539062 177.152344 68.859375 C 177.832031 68.179688 178.570312 67.574219 179.371094 67.039062 C 180.167969 66.503906 181.011719 66.054688 181.898438 65.6875 C 182.789062 65.320312 183.703125 65.042969 184.644531 64.855469 C 185.585938 64.667969 186.539062 64.574219 187.5 64.574219 C 188.460938 64.574219 189.414062 64.667969 190.355469 64.855469 C 191.296875 65.042969 192.210938 65.320312 193.101562 65.6875 C 193.988281 66.054688 194.832031 66.503906 195.628906 67.039062 C 196.429688 67.574219 197.167969 68.179688 197.847656 68.859375 C 198.527344 69.539062 199.132812 70.277344 199.667969 71.078125 C 200.203125 71.875 200.652344 72.71875 201.019531 73.605469 C 201.386719 74.496094 201.664062 75.410156 201.851562 76.351562 C 202.039062 77.292969 202.132812 78.246094 202.132812 79.207031 C 202.132812 80.167969 202.039062 81.121094 201.851562 82.0625 C 201.660156 83.003906 201.382812 83.917969 201.015625 84.804688 C 200.648438 85.691406 200.195312 86.535156 199.664062 87.332031 C 199.128906 88.132812 198.523438 88.871094 197.84375 89.550781 C 197.164062 90.230469 196.425781 90.835938 195.625 91.371094 C 194.828125 91.902344 193.984375 92.355469 193.097656 92.722656 C 192.210938 93.089844 191.296875 93.371094 190.355469 93.558594 C 189.410156 93.746094 188.460938 93.839844 187.5 93.839844 Z M 187.5 71.890625 C 187.019531 71.890625 186.542969 71.9375 186.074219 72.03125 C 185.601562 72.125 185.144531 72.261719 184.699219 72.445312 C 184.257812 72.632812 183.835938 72.855469 183.433594 73.125 C 183.035156 73.390625 182.664062 73.695312 182.324219 74.035156 C 181.984375 74.375 181.683594 74.742188 181.417969 75.140625 C 181.148438 75.542969 180.921875 75.964844 180.738281 76.40625 C 180.554688 76.851562 180.417969 77.308594 180.324219 77.78125 C 180.230469 78.25 180.183594 78.726562 180.183594 79.207031 C 180.183594 79.6875 180.230469 80.164062 180.324219 80.636719 C 180.417969 81.105469 180.554688 81.5625 180.738281 82.007812 C 180.921875 82.453125 181.148438 82.871094 181.417969 83.273438 C 181.683594 83.671875 181.984375 84.042969 182.324219 84.382812 C 182.664062 84.722656 183.035156 85.023438 183.433594 85.292969 C 183.835938 85.558594 184.257812 85.785156 184.699219 85.96875 C 185.144531 86.152344 185.601562 86.289062 186.074219 86.382812 C 186.542969 86.476562 187.019531 86.523438 187.5 86.523438 C 187.980469 86.523438 188.457031 86.476562 188.925781 86.382812 C 189.398438 86.289062 189.855469 86.152344 190.300781 85.96875 C 190.742188 85.785156 191.164062 85.558594 191.566406 85.292969 C 191.964844 85.023438 192.335938 84.722656 192.675781 84.382812 C 193.015625 84.042969 193.316406 83.671875 193.582031 83.273438 C 193.851562 82.871094 194.078125 82.453125 194.261719 82.007812 C 194.445312 81.5625 194.582031 81.105469 194.675781 80.636719 C 194.769531 80.164062 194.816406 79.6875 194.816406 79.207031 C 194.816406 78.726562 194.769531 78.25 194.675781 77.78125 C 194.582031 77.308594 194.441406 76.851562 194.257812 76.410156 C 194.074219 75.964844 193.847656 75.542969 193.582031 75.144531 C 193.316406 74.746094 193.011719 74.375 192.671875 74.035156 C 192.332031 73.695312 191.960938 73.394531 191.5625 73.125 C 191.164062 72.859375 190.742188 72.632812 190.300781 72.449219 C 189.855469 72.265625 189.398438 72.125 188.925781 72.03125 C 188.457031 71.9375 187.980469 71.890625 187.5 71.890625 Z M 187.5 71.890625 "
      fill-opacity="1" fill-rule="nonzero" />
  </g>
  <path style="fill: var(--current-primary, #000000)"
    d="M 215.304688 128.964844 L 215.304688 180.183594 L 159.695312 180.183594 L 159.695312 128.964844 L 215.304688 128.964844 M 218.964844 121.644531 L 156.035156 121.644531 C 155.550781 121.644531 155.085938 121.738281 154.636719 121.925781 C 154.1875 122.109375 153.792969 122.375 153.449219 122.71875 C 153.105469 123.0625 152.84375 123.457031 152.65625 123.90625 C 152.472656 124.351562 152.378906 124.820312 152.378906 125.304688 L 152.378906 187.5 L 222.621094 187.5 L 222.621094 125.304688 C 222.621094 124.820312 222.527344 124.351562 222.34375 123.90625 C 222.15625 123.457031 221.894531 123.0625 221.550781 122.71875 C 221.207031 122.375 220.8125 122.109375 220.363281 121.925781 C 219.914062 121.738281 219.449219 121.644531 218.964844 121.644531 Z M 218.964844 121.644531 "
    fill-opacity="1" fill-rule="nonzero" />
  <g style="fill: var(--current-accent, #545454)" fill-opacity="0.302">
    <g transform="translate(198.673922, 158.300665)">
      <g>
        <path
          d="M 41.550781 3.449219 L 69.601562 3.449219 L 69.601562 -23.699219 L 41.550781 -23.699219 Z M 73.648438 -144.449219 L 49.351562 -144.449219 C 45 -144.449219 40.949219 -143.550781 37.199219 -141.898438 C 33.300781 -140.25 30 -138 27.148438 -135.148438 C 24.300781 -132.300781 22.050781 -129 20.398438 -125.25 C 18.75 -121.351562 18 -117.300781 18 -113.101562 L 18 -95.550781 L 46.050781 -95.550781 L 46.050781 -109.050781 C 46.050781 -111 46.648438 -112.648438 48.148438 -114.148438 C 49.648438 -115.648438 51.300781 -116.398438 53.398438 -116.398438 L 69.601562 -116.398438 C 71.550781 -116.398438 73.199219 -115.648438 74.699219 -114.148438 C 76.199219 -112.648438 76.949219 -111 76.949219 -109.050781 L 76.949219 -98.699219 C 76.949219 -97.648438 76.5 -96.601562 75.75 -95.398438 C 74.851562 -94.199219 73.800781 -92.851562 72.601562 -91.5 C 71.25 -90.148438 69.75 -88.800781 68.25 -87.300781 C 66.75 -85.800781 65.101562 -84.449219 63.601562 -83.25 C 60.898438 -81 58.351562 -78.75 55.800781 -76.351562 C 53.25 -73.949219 51 -71.398438 48.898438 -68.851562 C 46.800781 -66.148438 45 -63.449219 43.648438 -60.601562 C 42.300781 -57.601562 41.550781 -54.601562 41.550781 -51.300781 L 41.550781 -27.300781 L 69.601562 -27.300781 L 69.601562 -42.449219 C 69.601562 -44.550781 70.050781 -46.648438 71.101562 -48.75 C 72.148438 -50.699219 73.5 -52.648438 75.300781 -54.601562 C 76.949219 -56.550781 78.898438 -58.5 81 -60.449219 C 83.101562 -62.25 85.199219 -64.199219 87.449219 -66 C 89.550781 -67.800781 91.800781 -69.75 93.898438 -71.550781 C 96 -73.351562 97.949219 -75.300781 99.601562 -77.25 C 101.101562 -79.050781 102.449219 -81.148438 103.5 -83.25 C 104.398438 -85.351562 105 -87.449219 105 -89.851562 L 105 -113.101562 C 105 -117.300781 104.101562 -121.351562 102.449219 -125.25 C 100.800781 -129 98.550781 -132.300781 95.699219 -135.148438 C 92.851562 -138 89.550781 -140.25 85.800781 -141.898438 C 81.898438 -143.550781 77.851562 -144.449219 73.648438 -144.449219 Z M 73.648438 -144.449219 " />
      </g>
    </g>
  </g>
  <g style="fill: var(--current-accent, #545454)" fill-opacity="0.502">
    <g transform="translate(202.643591, 159.985693)">
      <g>
        <path
          d="M 41.550781 3.449219 L 69.601562 3.449219 L 69.601562 -23.699219 L 41.550781 -23.699219 Z M 73.648438 -144.449219 L 49.351562 -144.449219 C 45 -144.449219 40.949219 -143.550781 37.199219 -141.898438 C 33.300781 -140.25 30 -138 27.148438 -135.148438 C 24.300781 -132.300781 22.050781 -129 20.398438 -125.25 C 18.75 -121.351562 18 -117.300781 18 -113.101562 L 18 -95.550781 L 46.050781 -95.550781 L 46.050781 -109.050781 C 46.050781 -111 46.648438 -112.648438 48.148438 -114.148438 C 49.648438 -115.648438 51.300781 -116.398438 53.398438 -116.398438 L 69.601562 -116.398438 C 71.550781 -116.398438 73.199219 -115.648438 74.699219 -114.148438 C 76.199219 -112.648438 76.949219 -111 76.949219 -109.050781 L 76.949219 -98.699219 C 76.949219 -97.648438 76.5 -96.601562 75.75 -95.398438 C 74.851562 -94.199219 73.800781 -92.851562 72.601562 -91.5 C 71.25 -90.148438 69.75 -88.800781 68.25 -87.300781 C 66.75 -85.800781 65.101562 -84.449219 63.601562 -83.25 C 60.898438 -81 58.351562 -78.75 55.800781 -76.351562 C 53.25 -73.949219 51 -71.398438 48.898438 -68.851562 C 46.800781 -66.148438 45 -63.449219 43.648438 -60.601562 C 42.300781 -57.601562 41.550781 -54.601562 41.550781 -51.300781 L 41.550781 -27.300781 L 69.601562 -27.300781 L 69.601562 -42.449219 C 69.601562 -44.550781 70.050781 -46.648438 71.101562 -48.75 C 72.148438 -50.699219 73.5 -52.648438 75.300781 -54.601562 C 76.949219 -56.550781 78.898438 -58.5 81 -60.449219 C 83.101562 -62.25 85.199219 -64.199219 87.449219 -66 C 89.550781 -67.800781 91.800781 -69.75 93.898438 -71.550781 C 96 -73.351562 97.949219 -75.300781 99.601562 -77.25 C 101.101562 -79.050781 102.449219 -81.148438 103.5 -83.25 C 104.398438 -85.351562 105 -87.449219 105 -89.851562 L 105 -113.101562 C 105 -117.300781 104.101562 -121.351562 102.449219 -125.25 C 100.800781 -129 98.550781 -132.300781 95.699219 -135.148438 C 92.851562 -138 89.550781 -140.25 85.800781 -141.898438 C 81.898438 -143.550781 77.851562 -144.449219 73.648438 -144.449219 Z M 73.648438 -144.449219 " />
      </g>
    </g>
  </g>
  <g style="fill: var(--current-primary, #000000)" fill-opacity="1">
    <g transform="translate(206.613272, 161.670721)">
      <g>
        <path
          d="M 41.550781 3.449219 L 69.601562 3.449219 L 69.601562 -23.699219 L 41.550781 -23.699219 Z M 73.648438 -144.449219 L 49.351562 -144.449219 C 45 -144.449219 40.949219 -143.550781 37.199219 -141.898438 C 33.300781 -140.25 30 -138 27.148438 -135.148438 C 24.300781 -132.300781 22.050781 -129 20.398438 -125.25 C 18.75 -121.351562 18 -117.300781 18 -113.101562 L 18 -95.550781 L 46.050781 -95.550781 L 46.050781 -109.050781 C 46.050781 -111 46.648438 -112.648438 48.148438 -114.148438 C 49.648438 -115.648438 51.300781 -116.398438 53.398438 -116.398438 L 69.601562 -116.398438 C 71.550781 -116.398438 73.199219 -115.648438 74.699219 -114.148438 C 76.199219 -112.648438 76.949219 -111 76.949219 -109.050781 L 76.949219 -98.699219 C 76.949219 -97.648438 76.5 -96.601562 75.75 -95.398438 C 74.851562 -94.199219 73.800781 -92.851562 72.601562 -91.5 C 71.25 -90.148438 69.75 -88.800781 68.25 -87.300781 C 66.75 -85.800781 65.101562 -84.449219 63.601562 -83.25 C 60.898438 -81 58.351562 -78.75 55.800781 -76.351562 C 53.25 -73.949219 51 -71.398438 48.898438 -68.851562 C 46.800781 -66.148438 45 -63.449219 43.648438 -60.601562 C 42.300781 -57.601562 41.550781 -54.601562 41.550781 -51.300781 L 41.550781 -27.300781 L 69.601562 -27.300781 L 69.601562 -42.449219 C 69.601562 -44.550781 70.050781 -46.648438 71.101562 -48.75 C 72.148438 -50.699219 73.5 -52.648438 75.300781 -54.601562 C 76.949219 -56.550781 78.898438 -58.5 81 -60.449219 C 83.101562 -62.25 85.199219 -64.199219 87.449219 -66 C 89.550781 -67.800781 91.800781 -69.75 93.898438 -71.550781 C 96 -73.351562 97.949219 -75.300781 99.601562 -77.25 C 101.101562 -79.050781 102.449219 -81.148438 103.5 -83.25 C 104.398438 -85.351562 105 -87.449219 105 -89.851562 L 105 -113.101562 C 105 -117.300781 104.101562 -121.351562 102.449219 -125.25 C 100.800781 -129 98.550781 -132.300781 95.699219 -135.148438 C 92.851562 -138 89.550781 -140.25 85.800781 -141.898438 C 81.898438 -143.550781 77.851562 -144.449219 73.648438 -144.449219 Z M 73.648438 -144.449219 " />
      </g>
    </g>
  </g>
</svg>
